<svg xmlns="http://www.w3.org/2000/svg" viewBox="0 0 227.4 78.94">
  <defs>
    <style>
      .cls-2{fill:#010101}
      .cls-3{fill:#f7f5f5}
      .cls-4{fill:#e52528}

      @keyframes popup {
        0% {
        transform: scale(1)
        }
        50% {
        transform: scale(1.1)
        }
        100% {
        transform: scale(1)
        }
      }

      #pokebal-1 {
      animation: .3s popup infinite linear;
      transform-origin: 25%;
      }

      #pokebal-2 {

      animation: .3s popup infinite linear;
        animation-delay: .2s;
      transform-origin: center;
      }

      #pokebal-3 {

      animation: .3s popup infinite linear;
      animation-delay: .3s;
      transform-origin: 75%;

      }

    </style>
  </defs>
  <path d="M187.92 0a39.39 39.39 0 0 0-31.41 15.59 10.05 10.05 0 0 1-5.56 2 10.34 10.34 0 0 1-6.36-2.71 39.44 39.44 0 0 0-61.94.24 10.49 10.49 0 0 1-6.16 2.47 9.82 9.82 0 0 1-5.8-2.27 39.47 39.47 0 1 0-2.43 51.11l.06-.07.65-.72c1.27-1.3 4.13-3.79 7.51-3.79 3.64 0 6.81 2.89 8 4.07l.33.36.14.15a39.46 39.46 0 0 0 57.73-.11l.08.13s3.64-4.58 8.23-4.58c2.69 0 5.12 1.58 6.67 2.88A39.47 39.47 0 1 0 187.92 0z" fill="#333" id="behind"/>
  <g id="pokebal-1">
    <path class="cls-2" d="M39.48 9.86A29.62 29.62 0 1 1 9.86 39.5 29.52 29.52 0 0 1 39.48 9.86z"/>
    <path class="cls-3" d="M22.14 42.71h7.79a1.18 1.18 0 0 1 1.28.75 8.76 8.76 0 0 0 8 5.22 8.66 8.66 0 0 0 8.36-4.77 2 2 0 0 1 2.1-1.21q7.49.08 15 0c.94 0 1.17.2 1 1.13-1.86 9.17-6.9 15.75-15.3 19.73a26.46 26.46 0 0 1-36.94-19.71c-.15-.85-.1-1.19.92-1.16 2.59.07 5.19.02 7.79.02z"/>
    <path class="cls-4" d="M22.06 36.23h-7.8c-.85 0-1-.27-.86-1a26.46 26.46 0 0 1 52.21-.05c.15.86-.06 1.1-.93 1.09h-15.6a1.24 1.24 0 0 1-1.3-.77 8.81 8.81 0 0 0-8.37-5.19 8.77 8.77 0 0 0-8.22 5.26 1.11 1.11 0 0 1-1.21.69c-2.64-.04-5.28-.02-7.92-.03z"/>
    <path class="cls-3" d="M39.52 33.49a6 6 0 0 1 6 6.1 6 6 0 1 1-6-6.1z"/>
  </g>
  <g id="pokebal-2">
    <path class="cls-2" d="M113.69 9.86A29.62 29.62 0 1 1 84.06 39.5a29.53 29.53 0 0 1 29.63-29.64z"/>
    <path class="cls-3" d="M96.34 42.71h7.8a1.16 1.16 0 0 1 1.27.75 8.76 8.76 0 0 0 8 5.22 8.65 8.65 0 0 0 8.36-4.77 2 2 0 0 1 2.1-1.21q7.49.08 15 0c.93 0 1.16.2 1 1.13C138 53 133 59.58 124.58 63.56a26.47 26.47 0 0 1-36.95-19.71c-.15-.85-.1-1.19.92-1.16 2.6.07 5.19.02 7.79.02z"/>
    <path class="cls-4" d="M96.26 36.23h-7.8c-.85 0-1-.27-.86-1a26.46 26.46 0 0 1 52.21-.05c.15.86-.05 1.1-.93 1.09h-15.6a1.22 1.22 0 0 1-1.29-.77 9.2 9.2 0 0 0-16.59.07 1.12 1.12 0 0 1-1.22.69c-2.64-.04-5.28-.02-7.92-.03z"/>
    <path class="cls-3" d="M113.72 33.49a6 6 0 0 1 6 6.1 6 6 0 0 1-12-.15 6 6 0 0 1 6-5.95z"/>
  </g>
  <g id="pokebal-3">
    <path class="cls-2" d="M187.89 9.86a29.62 29.62 0 1 1-29.62 29.64 29.52 29.52 0 0 1 29.62-29.64z"/>
    <path class="cls-3" d="M170.55 42.71h7.79a1.18 1.18 0 0 1 1.28.75 8.75 8.75 0 0 0 8 5.22 8.63 8.63 0 0 0 8.35-4.77 2 2 0 0 1 2.1-1.21q7.5.08 15 0c.94 0 1.16.2 1 1.13-1.79 9.13-6.83 15.76-15.23 19.74a26.46 26.46 0 0 1-36.94-19.71c-.15-.85-.1-1.19.91-1.16 2.54.06 5.19.01 7.74.01z"/>
    <path class="cls-4" d="M170.47 36.23h-7.8c-.86 0-1-.27-.87-1a26.46 26.46 0 0 1 52.2-.07c.14.86-.06 1.1-.94 1.09h-15.6a1.23 1.23 0 0 1-1.29-.77 9.2 9.2 0 0 0-16.59.07 1.11 1.11 0 0 1-1.21.69c-2.62-.02-5.26 0-7.9-.01z"/>
    <path class="cls-3" d="M187.92 33.49a6 6 0 0 1 6 6.1 6 6 0 0 1-12.06-.15 6 6 0 0 1 6.06-5.95z"/>
  </g>
</svg>
