<svg xmlns="http://www.w3.org/2000/svg" viewBox="0 0 207.62 59.23" style="overflow:visible">
  <defs>
    <style>
      .cls-1{fill:#010101;}
      .cls-2{fill:#f7f5f5;}
      .cls-3{fill:#e52528;}

      #pokebal-1 {
      transform-origin: initial;
       animation: pop .6s linear infinite
      }

      #pokebal-2 {

      }

      #pokebal-3 {

      }

      @keyframes pop {
        100% {
        transform: scale(1.1)
        }
      }
    </style>
  </defs>
  <title>loading-poke</title>
  <g id="pokebal-1"><path class="cls-1" d="M29.62,0A29.62,29.62,0,1,1,0,29.64,29.52,29.52,0,0,1,29.62,0Z" transform="translate(0)"/><path class="cls-2" d="M12.28,32.85c2.6,0,5.19,0,7.79,0a1.18,1.18,0,0,1,1.28.75,8.72,8.72,0,0,0,8,5.21A8.63,8.63,0,0,0,37.68,34a2,2,0,0,1,2.09-1.21q7.5.08,15,0c.94,0,1.17.2,1,1.13C54,43.08,48.91,49.72,40.51,53.7A26.46,26.46,0,0,1,3.57,34c-.15-.85-.1-1.19.92-1.16C7.08,32.9,9.68,32.85,12.28,32.85Z" transform="translate(0)"/><path class="cls-3" d="M12.2,26.37c-2.6,0-5.2,0-7.8,0-.86,0-1-.27-.86-1a26.46,26.46,0,0,1,52.21-.05c.14.86-.06,1.1-.94,1.09-5.19,0-10.4,0-15.59,0a1.22,1.22,0,0,1-1.3-.76,8.81,8.81,0,0,0-8.37-5.19,8.77,8.77,0,0,0-8.22,5.26,1.11,1.11,0,0,1-1.21.69C17.48,26.36,14.84,26.37,12.2,26.37Z" transform="translate(0)"/><path class="cls-2" d="M29.66,23.63a6,6,0,0,1,6,6.1,6,6,0,0,1-12.06-.15A6,6,0,0,1,29.66,23.63Z" transform="translate(0)"/></g>
  <g id="pokebal-2"><path class="cls-1" d="M103.83,0A29.62,29.62,0,1,1,74.2,29.64,29.53,29.53,0,0,1,103.83,0Z" transform="translate(0)"/><path class="cls-2" d="M86.48,32.85c2.6,0,5.2,0,7.8,0a1.17,1.17,0,0,1,1.27.75,8.73,8.73,0,0,0,8,5.21A8.62,8.62,0,0,0,111.88,34a2,2,0,0,1,2.1-1.21q7.49.08,15,0c.93,0,1.16.2,1,1.13-1.8,9.12-6.83,15.76-15.23,19.74A26.47,26.47,0,0,1,77.77,34c-.15-.85-.1-1.19.92-1.16C81.28,32.9,83.88,32.85,86.48,32.85Z" transform="translate(0)"/><path class="cls-3" d="M86.4,26.37c-2.6,0-5.2,0-7.8,0-.85,0-1-.27-.86-1A26.46,26.46,0,0,1,130,25.3c.15.86,0,1.1-.93,1.09q-7.8,0-15.6,0a1.2,1.2,0,0,1-1.29-.76,9.2,9.2,0,0,0-16.59.07,1.12,1.12,0,0,1-1.22.69C91.68,26.36,89,26.37,86.4,26.37Z" transform="translate(0)"/><path class="cls-2" d="M103.86,23.63a6,6,0,0,1,6,6.1,6,6,0,0,1-12.05-.15A6,6,0,0,1,103.86,23.63Z" transform="translate(0)"/></g>
  <g id="pokebal-3"><path class="cls-1" d="M178,0a29.62,29.62,0,1,1-29.62,29.64A29.52,29.52,0,0,1,178,0Z" transform="translate(0)"/><path class="cls-2" d="M160.69,32.85c2.59,0,5.19,0,7.79,0a1.16,1.16,0,0,1,1.27.75,8.75,8.75,0,0,0,8,5.21A8.61,8.61,0,0,0,186.08,34a2,2,0,0,1,2.1-1.21q7.5.08,15,0c.93,0,1.16.2,1,1.13-1.8,9.12-6.83,15.76-15.23,19.74A26.45,26.45,0,0,1,152,34c-.15-.85-.1-1.19.91-1.16C155.49,32.9,158.09,32.85,160.69,32.85Z" transform="translate(0)"/><path class="cls-3" d="M160.61,26.37c-2.6,0-5.2,0-7.8,0-.86,0-1-.27-.87-1a26.46,26.46,0,0,1,52.22-.05c.14.86-.06,1.1-.94,1.09q-7.8,0-15.6,0a1.21,1.21,0,0,1-1.29-.76,9.2,9.2,0,0,0-16.59.07,1.11,1.11,0,0,1-1.21.69C165.89,26.36,163.25,26.37,160.61,26.37Z" transform="translate(0)"/><path class="cls-2" d="M178.06,23.63a6,6,0,0,1,6,6.1A6,6,0,0,1,172,29.58,6,6,0,0,1,178.06,23.63Z" transform="translate(0)"/></g></svg>
