<svg id="Laag_1" data-name="Laag 1" xmlns="http://www.w3.org/2000/svg" viewBox="0 0 30.6 31"><defs><style>.cls-1{fill:none;}.cls-2{fill:#f2d697;}.cls-3{fill:#69ae3c;}.cls-4{fill:#f4df18;}</style></defs><title>Naamloos-15</title><path class="cls-1" d="M8.39,15.62a2.25,2.25,0,0,0-.11.22Z" transform="translate(-0.2)"/><path d="M8.28,15.84c-.12.24-.18.38-.18.38S8.22,16,8.28,15.84Z" transform="translate(-0.2)"/><path class="cls-2" d="M11.63,3.46,3.53.37A4.66,4.66,0,0,0,2.14,0C.82,0,.12.77.21,1.94A6,6,0,0,0,.55,3.39L3.4,11.83C3.59,9.16,4.88,4.2,11.63,3.46Z" transform="translate(-0.2)"/><path class="cls-3" d="M30.8,11.65h0c0-.89-.84-1.17-1.54-1.43L11.63,3.46c-6.75.74-8,5.7-8.23,8.37L9.29,29.3c.06.17.13.34.2.5C10.69,23,15,11,30.8,11.65Z" transform="translate(-0.2)"/><path class="cls-4" d="M21.73,16.07c2.53-1,5.07-1.94,7.59-2.94.68-.27,1.49-.59,1.48-1.48C15,11,10.69,23,9.49,29.8a3.58,3.58,0,0,0,.37.66,1,1,0,0,0,1.72.11,3.92,3.92,0,0,0,.78-1.26c1.11-2.58,2.21-5.16,3.35-7.72,0,0,.06-.15.18-.39,0-.09.08-.15.11-.22h0l.06-.11c.28-.44.48-.24,1.17.48,1.87,1.95,3.75,3.9,5.62,5.86a11.52,11.52,0,0,1,3.85-3.4l-5.46-5.66c-.82-.86-1.14-1.18-.84-1.46A5,5,0,0,1,21.73,16.07Z" transform="translate(-0.2)"/><path class="cls-2" d="M22.86,27.2l2.75,2.86a2.59,2.59,0,0,0,2.44.88,2.44,2.44,0,0,0,2-1.76,2.54,2.54,0,0,0-.72-2.67c-.87-.9-1.74-1.8-2.6-2.71A11.52,11.52,0,0,0,22.86,27.2Z" transform="translate(-0.2)"/></svg>