<svg id="plus" xmlns="http://www.w3.org/2000/svg" viewBox="0 0 56.36 56.36"><defs><style>.cls-1{fill:#bcbcbb;}.cls-2{fill:#010101;}.cls-3{fill:#f7f5f5;}.cls-4{fill:#e52528;}.cls-5{fill:#ed6a74;}.cls-6{fill:#d8d8d8;}.cls-7{fill:#202020;}.cls-8{fill:#fff;}</style></defs><title>plusicon</title><circle class="cls-1" cx="28.18" cy="28.18" r="28.18"/><path class="cls-2" d="M30.36,12.82A17.28,17.28,0,1,1,13.07,30.11,17.22,17.22,0,0,1,30.36,12.82Z" transform="translate(-1.43 -1.43)"/><path class="cls-3" d="M20.24,32c1.51,0,3,0,4.55,0a.69.69,0,0,1,.74.44,5.1,5.1,0,0,0,4.65,3,5,5,0,0,0,4.88-2.78A1.18,1.18,0,0,1,36.28,32c2.92,0,5.83,0,8.75,0,.54,0,.68.11.57.66A15.44,15.44,0,0,1,19.67,41.2a15.56,15.56,0,0,1-4.51-8.55c-.09-.5-.06-.69.53-.68C17.2,32,18.72,32,20.24,32Z" transform="translate(-1.43 -1.43)"/><path class="cls-4" d="M20.19,28.21c-1.52,0-3,0-4.55,0-.5,0-.58-.16-.5-.61a15.44,15.44,0,0,1,30.46,0c.09.5,0,.64-.54.64-3,0-6.07,0-9.1,0a.7.7,0,0,1-.76-.44,5.37,5.37,0,0,0-9.68,0,.64.64,0,0,1-.71.4C23.27,28.2,21.73,28.21,20.19,28.21Z" transform="translate(-1.43 -1.43)"/><path class="cls-3" d="M30.38,26.61a3.47,3.47,0,0,1,3.51,3.55,3.52,3.52,0,0,1-7-.08A3.48,3.48,0,0,1,30.38,26.61Z" transform="translate(-1.43 -1.43)"/><path class="cls-5" d="M30.63,15.74h-.28C23.6,15.74,19,21.52,19,21.52s6.67-4.1,11.52-4.1S42,21.52,42,21.52,37.38,15.74,30.63,15.74Z" transform="translate(-1.43 -1.43)"/><path class="cls-6" d="M30.63,44.82h-.28C23.6,44.82,19,39,19,39s6.67,4.1,11.52,4.1S42,39,42,39,37.38,44.82,30.63,44.82Z" transform="translate(-1.43 -1.43)"/><circle class="cls-7" cx="40.66" cy="19.49" r="8.25"/><path class="cls-8" d="M46.65,20H43.06V16.36a1,1,0,0,0-1-1h0a1,1,0,0,0-1,1V20H37.52a1,1,0,1,0,0,2h3.59v3.58a1,1,0,0,0,1,1h0a1,1,0,0,0,1-1V21.91h3.59a1,1,0,1,0,0-2Z" transform="translate(-1.43 -1.43)"/></svg>