<svg id="shiny" xmlns="http://www.w3.org/2000/svg" viewBox="0 0 59.21 59.21"><defs><style>.cls-1{fill:#f8ca51;}.cls-2{fill:#fff;}.cls-3{fill:#010101;}.cls-4{fill:#edd9ab;}</style></defs><title>shinyicon</title><circle class="cls-1" cx="29.61" cy="29.61" r="28.18"/><path class="cls-2" d="M38.86,37.15c-12.77,0-12.77-12.77-12.77-12.77a.31.31,0,0,0-.62,0v.06c0,.93-.51,12.68-12.72,12.71h-.06a.32.32,0,0,0,0,.63h0c12.26,0,12.75,11.78,12.77,12.71v.06a.31.31,0,1,0,.62,0s0-12.77,12.77-12.77a.32.32,0,0,0,0-.63Z" transform="translate(0 -0.01)"/><path class="cls-2" d="M42.86,18.12c-9.52,0-9.52-9.52-9.52-9.52a.23.23,0,0,0-.46,0v.05c0,.69-.38,9.44-9.48,9.47h0a.23.23,0,0,0,0,.46h0c9.14,0,9.5,8.78,9.52,9.48v0a.23.23,0,1,0,.46,0s0-9.52,9.52-9.52a.23.23,0,1,0,0-.46Z" transform="translate(0 -0.01)"/><path class="cls-2" d="M46.71,30.13C42,30.13,42,25.4,42,25.4a.11.11,0,0,0-.11-.11.11.11,0,0,0-.12.11v0c0,.34-.18,4.69-4.71,4.7h0a.12.12,0,0,0-.11.12.11.11,0,0,0,.11.11h0c4.55,0,4.73,4.37,4.73,4.71v0a.11.11,0,0,0,.12.11A.11.11,0,0,0,42,35.1s0-4.74,4.73-4.74a.11.11,0,0,0,.12-.11A.12.12,0,0,0,46.71,30.13Z" transform="translate(0 -0.01)"/><path class="cls-3" d="M29.61,59.22a29.61,29.61,0,1,1,29.6-29.61A29.64,29.64,0,0,1,29.61,59.22Zm0-56.36A26.75,26.75,0,1,0,56.36,29.61,26.78,26.78,0,0,0,29.61,2.86Z" transform="translate(0 -0.01)"/><path class="cls-4" d="M30.09,5h-.48c-11.56,0-19.5,9.9-19.5,9.9s11.43-7,19.74-7,19.74,7,19.74,7S41.65,5,30.09,5Z" transform="translate(0 -0.01)"/></svg>