<svg id="Laag_1" data-name="Laag 1" xmlns="http://www.w3.org/2000/svg" viewBox="0 0 59.21 59.23"><defs><style>.cls-1{fill:#010101;}.cls-2{fill:#f7f5f5;}.cls-3{fill:#e52528;}.cls-4{fill:#ed6a74;}.cls-5{fill:#d8d8d8;}</style></defs><title>team</title><path class="cls-1" d="M29.62,0A29.62,29.62,0,1,1,0,29.64,29.52,29.52,0,0,1,29.62,0Z" transform="translate(0)"/><path class="cls-2" d="M12.28,32.85c2.6,0,5.19,0,7.79,0a1.18,1.18,0,0,1,1.28.75,8.72,8.72,0,0,0,8,5.21A8.63,8.63,0,0,0,37.68,34a2,2,0,0,1,2.09-1.21q7.5.08,15,0c.94,0,1.17.2,1,1.13C54,43.08,48.91,49.72,40.51,53.7A26.46,26.46,0,0,1,3.57,34c-.15-.85-.1-1.19.92-1.16C7.08,32.9,9.68,32.85,12.28,32.85Z" transform="translate(0)"/><path class="cls-3" d="M12.2,26.37c-2.6,0-5.2,0-7.8,0-.86,0-1-.27-.86-1a26.46,26.46,0,0,1,52.21-.05c.14.86-.06,1.1-.94,1.09-5.19,0-10.4,0-15.59,0a1.22,1.22,0,0,1-1.3-.76,8.81,8.81,0,0,0-8.37-5.19,8.77,8.77,0,0,0-8.22,5.26,1.11,1.11,0,0,1-1.21.69C17.48,26.36,14.84,26.37,12.2,26.37Z" transform="translate(0)"/><path class="cls-2" d="M29.66,23.63a6,6,0,0,1,6,6.1,6,6,0,0,1-12.06-.15A6,6,0,0,1,29.66,23.63Z" transform="translate(0)"/><path class="cls-4" d="M30.09,5h-.48c-11.56,0-19.5,9.9-19.5,9.9s11.43-7,19.74-7,19.74,7,19.74,7S41.65,5,30.09,5Z" transform="translate(0)"/><path class="cls-5" d="M30.09,54.83h-.48c-11.56,0-19.5-9.89-19.5-9.89s11.43,7,19.74,7,19.74-7,19.74-7S41.65,54.83,30.09,54.83Z" transform="translate(0)"/></svg>