<svg id="Laag_4" data-name="Laag 4" xmlns="http://www.w3.org/2000/svg" viewBox="0 0 54.06 54.06"><defs><style>.cls-1{fill:#2b2b2b;}</style></defs><title>turn</title><path class="cls-1" d="M56,5.5a2.21,2.21,0,0,0-1.59-.67,2.19,2.19,0,0,0-1.58.67L48.23,10A27.23,27.23,0,0,0,39.6,4.53a26.56,26.56,0,0,0-10-1.95,26,26,0,0,0-16.9,5.86,27.48,27.48,0,0,0-9.5,15.29V24a1.09,1.09,0,0,0,.33.79,1.11,1.11,0,0,0,.8.33h7a1.06,1.06,0,0,0,1.06-.81,41.62,41.62,0,0,1,1.86-4.11,18,18,0,0,1,15.35-8.59,17.5,17.5,0,0,1,12.28,4.82L37,21.27a2.17,2.17,0,0,0-.67,1.58,2.27,2.27,0,0,0,2.26,2.25H54.38a2.27,2.27,0,0,0,2.26-2.25V7.08A2.19,2.19,0,0,0,56,5.5Z" transform="translate(-2.58 -2.58)"/><path class="cls-1" d="M54.63,34.11H47.87a1,1,0,0,0-1,.81A42.63,42.63,0,0,1,45,39a17.94,17.94,0,0,1-15.34,8.59A17.43,17.43,0,0,1,23,46.36a17.9,17.9,0,0,1-5.67-3.59L22.18,38a2.15,2.15,0,0,0,.67-1.58,2.29,2.29,0,0,0-2.25-2.26H4.83a2.17,2.17,0,0,0-1.58.67,2.17,2.17,0,0,0-.67,1.59V52.13a2.17,2.17,0,0,0,.67,1.59,2.2,2.2,0,0,0,3.16,0L11,49.18a26.92,26.92,0,0,0,8.57,5.52,26.43,26.43,0,0,0,10,1.94,25.78,25.78,0,0,0,16.82-5.86,27.35,27.35,0,0,0,9.43-15.29.51.51,0,0,0,0-.25,1.06,1.06,0,0,0-.34-.79A1.08,1.08,0,0,0,54.63,34.11Z" transform="translate(-2.58 -2.58)"/></svg>